<svg width="83" height="83" viewBox="0 0 83 83" fill="none" xmlns="http://www.w3.org/2000/svg">
<path d="M0 18.513C0 8.28856 8.28856 0 18.513 0H64.487C74.7114 0 83 8.28856 83 18.513V64.487C83 74.7114 74.7114 83 64.487 83H18.513C8.28856 83 0 74.7114 0 64.487V18.513Z" fill="#053264"/>
<path d="M30.5845 60.6186H9.76471V21.3604H30.5845C33.5587 21.3604 41.3376 22.4885 41.3376 31.739C41.3376 37.6954 38.4396 39.4853 36.9906 39.6358C38.8209 39.9366 42.4815 42.2981 42.4815 49.3375C42.4815 58.5429 34.5502 60.6938 30.5845 60.6186Z" fill="#C69FD5"/>
<path d="M18.9255 54.0768V44.2617H28.7306C31.4669 44.2618 33.9752 45.1747 33.9752 48.8269C33.9752 53.392 31.2389 54.0768 28.7306 54.0768H18.9255Z" fill="#053264"/>
<path d="M18.9255 37.7188V28.5581H27.878C30.3764 28.5582 32.6665 29.4103 32.6665 32.8189C32.6665 37.0797 30.1682 37.7188 27.878 37.7188H18.9255Z" fill="#053264"/>
<path d="M59.3117 61.929C71.3636 61.929 72.5506 54.7411 72.5506 51.3718H65.4746C65.7029 52.7195 64.7898 55.415 59.3117 55.415C53.8335 55.415 52.464 51.222 52.464 49.1255H73.2353C73.2353 40.8145 71.6375 31.8296 59.3117 31.8296C46.9858 31.8296 43.7902 41.4884 43.7902 46.4301C43.7902 51.3718 44.2467 61.929 59.3117 61.929Z" fill="#C69FD5"/>
<path d="M64.0708 43.6078H52.2966C52.5928 41.6448 54.296 37.7188 58.7391 37.7188C63.1822 37.7188 64.1449 41.6448 64.0708 43.6078Z" fill="#053264"/>
<path d="M50.3336 23.9775H66.692V29.2122H50.3336V23.9775Z" fill="#C69FD5"/>
</svg>
