<svg width="529" height="70" viewBox="0 0 529 70" fill="none" xmlns="http://www.w3.org/2000/svg">
<rect width="529" height="70" rx="20" fill="#053264"/>
<path d="M61.5312 52.3125C59.0443 52.3125 57.0391 51.5378 55.5156 49.9883C54.0052 48.4388 53.25 46.2708 53.25 43.4844V27.625C53.25 24.2917 53.9076 21.7396 55.2227 19.9688C56.5508 18.1979 58.7057 17.3125 61.6875 17.3125C63.3151 17.3125 64.7604 17.612 66.0234 18.2109C67.2995 18.8099 68.3021 19.7083 69.0312 20.9062C69.7604 22.0911 70.125 23.5885 70.125 25.3984V31.3359H63.2891V26.2578C63.2891 25.2292 63.1589 24.5391 62.8984 24.1875C62.638 23.8229 62.2344 23.6406 61.6875 23.6406C61.0495 23.6406 60.6198 23.875 60.3984 24.3438C60.1771 24.7995 60.0664 25.4115 60.0664 26.1797V43.3867C60.0664 44.3372 60.2031 45.0078 60.4766 45.3984C60.763 45.7891 61.1667 45.9844 61.6875 45.9844C62.2734 45.9844 62.6836 45.7435 62.918 45.2617C63.1654 44.7799 63.2891 44.1549 63.2891 43.3867V37.1953H70.2031V43.6992C70.2031 46.7201 69.4414 48.9141 67.918 50.2812C66.3945 51.6354 64.2656 52.3125 61.5312 52.3125ZM86.3109 52.3125C83.5635 52.3125 81.4607 51.4857 80.0023 49.832C78.557 48.1654 77.8344 45.763 77.8344 42.625V26.2969C77.8344 23.3542 78.5505 21.1211 79.9828 19.5977C81.4281 18.0742 83.5375 17.3125 86.3109 17.3125C89.0844 17.3125 91.1872 18.0742 92.6195 19.5977C94.0648 21.1211 94.7875 23.3542 94.7875 26.2969V42.625C94.7875 45.763 94.0583 48.1654 92.6 49.832C91.1547 51.4857 89.0583 52.3125 86.3109 52.3125ZM86.3695 45.9844C87.4112 45.9844 87.932 44.9753 87.932 42.957V26.1797C87.932 24.487 87.4242 23.6406 86.4086 23.6406C85.2628 23.6406 84.6898 24.5065 84.6898 26.2383V42.9961C84.6898 44.0638 84.8201 44.832 85.0805 45.3008C85.3409 45.7565 85.7706 45.9844 86.3695 45.9844ZM103.161 52V17.625H110.231L113.395 34.0898V17.625H120.036V52H113.317L109.88 34.8125V52H103.161ZM136.886 52.3125C134.139 52.3125 132.036 51.4857 130.577 49.832C129.132 48.1654 128.409 45.763 128.409 42.625V26.2969C128.409 23.3542 129.126 21.1211 130.558 19.5977C132.003 18.0742 134.113 17.3125 136.886 17.3125C139.659 17.3125 141.762 18.0742 143.195 19.5977C144.64 21.1211 145.363 23.3542 145.363 26.2969V42.625C145.363 45.763 144.633 48.1654 143.175 49.832C141.73 51.4857 139.633 52.3125 136.886 52.3125ZM136.945 45.9844C137.986 45.9844 138.507 44.9753 138.507 42.957V26.1797C138.507 24.487 137.999 23.6406 136.984 23.6406C135.838 23.6406 135.265 24.5065 135.265 26.2383V42.9961C135.265 44.0638 135.395 44.832 135.655 45.3008C135.916 45.7565 136.346 45.9844 136.945 45.9844ZM161.744 52.3125C159.257 52.3125 157.252 51.5378 155.728 49.9883C154.218 48.4388 153.463 46.2708 153.463 43.4844V27.625C153.463 24.2917 154.12 21.7396 155.435 19.9688C156.763 18.1979 158.918 17.3125 161.9 17.3125C163.528 17.3125 164.973 17.612 166.236 18.2109C167.512 18.8099 168.515 19.7083 169.244 20.9062C169.973 22.0911 170.338 23.5885 170.338 25.3984V31.3359H163.502V26.2578C163.502 25.2292 163.371 24.5391 163.111 24.1875C162.851 23.8229 162.447 23.6406 161.9 23.6406C161.262 23.6406 160.832 23.875 160.611 24.3438C160.39 24.7995 160.279 25.4115 160.279 26.1797V43.3867C160.279 44.3372 160.416 45.0078 160.689 45.3984C160.976 45.7891 161.379 45.9844 161.9 45.9844C162.486 45.9844 162.896 45.7435 163.13 45.2617C163.378 44.7799 163.502 44.1549 163.502 43.3867V37.1953H170.416V43.6992C170.416 46.7201 169.654 48.9141 168.13 50.2812C166.607 51.6354 164.478 52.3125 161.744 52.3125ZM178.32 52V17.625H192.07V24.2656H185.312V30.9648H191.797V37.4297H185.312V45.3008H192.52V52H178.32ZM200.405 52V17.625H210.952C212.709 17.625 214.038 18.0286 214.936 18.8359C215.834 19.6302 216.433 20.75 216.733 22.1953C217.045 23.6276 217.202 25.3138 217.202 27.2539C217.202 29.1289 216.961 30.6263 216.479 31.7461C216.01 32.8659 215.118 33.6406 213.803 34.0703C214.884 34.2917 215.639 34.832 216.069 35.6914C216.511 36.5378 216.733 37.638 216.733 38.9922V52H209.955V38.543C209.955 37.5404 209.747 36.9219 209.33 36.6875C208.927 36.4401 208.269 36.3164 207.358 36.3164V52H200.405ZM207.397 30.3594H209.057C210.008 30.3594 210.483 29.3242 210.483 27.2539C210.483 25.9128 210.379 25.0339 210.17 24.6172C209.962 24.2005 209.571 23.9922 208.998 23.9922H207.397V30.3594ZM240.042 52V17.625H250.511L253.402 38.582L256.273 17.625H266.839V52H260.55V27.2344L256.605 52H250.433L246.253 27.2344V52H240.042ZM274.548 52L277.869 17.625H289.529L292.791 52H286.287L285.798 46.4531H281.658L281.228 52H274.548ZM282.146 40.9648H285.271L283.767 23.4844H283.455L282.146 40.9648ZM279.002 16.5898V12.2344L288.279 7.97656V14.7539L279.002 16.5898ZM308.664 52.3125C305.526 52.3125 303.26 51.5312 301.867 49.9688C300.487 48.4062 299.797 45.9193 299.797 42.5078V39.1484H306.594V43.4453C306.594 44.2396 306.711 44.8646 306.945 45.3203C307.193 45.763 307.616 45.9844 308.215 45.9844C308.84 45.9844 309.27 45.8021 309.504 45.4375C309.751 45.0729 309.875 44.474 309.875 43.6406C309.875 42.5859 309.771 41.707 309.562 41.0039C309.354 40.2878 308.99 39.6107 308.469 38.9727C307.961 38.3216 307.251 37.5664 306.34 36.707L303.254 33.7773C300.949 31.6029 299.797 29.1159 299.797 26.3164C299.797 23.3867 300.474 21.1536 301.828 19.6172C303.195 18.0807 305.168 17.3125 307.746 17.3125C310.897 17.3125 313.13 18.1523 314.445 19.832C315.773 21.5117 316.438 24.0638 316.438 27.4883H309.445V25.125C309.445 24.6562 309.309 24.2917 309.035 24.0312C308.775 23.7708 308.417 23.6406 307.961 23.6406C307.414 23.6406 307.01 23.7969 306.75 24.1094C306.503 24.4089 306.379 24.7995 306.379 25.2812C306.379 25.763 306.509 26.2839 306.77 26.8438C307.03 27.4036 307.544 28.0482 308.312 28.7773L312.277 32.5859C313.072 33.3411 313.801 34.1419 314.465 34.9883C315.129 35.8216 315.663 36.7982 316.066 37.918C316.47 39.0247 316.672 40.3789 316.672 41.9805C316.672 45.2096 316.073 47.7422 314.875 49.5781C313.69 51.401 311.62 52.3125 308.664 52.3125Z" fill="#C69FD5"/>
<path d="M471.375 45.5385L487 29.7692M487 29.7692L471.375 14M487 29.7692L443 29.7692C439.686 29.7692 437 32.4555 437 35.7692L437 55" stroke="#C69FD5" stroke-width="7" stroke-linecap="round"/>
</svg>
