<svg width="83" height="83" viewBox="0 0 83 83" fill="none" xmlns="http://www.w3.org/2000/svg">
<path d="M0 18.513C0 8.28856 8.28856 0 18.513 0H64.487C74.7114 0 83 8.28856 83 18.513V64.487C83 74.7114 74.7114 83 64.487 83H18.513C8.28856 83 0 74.7114 0 64.487V18.513Z" fill="#053264"/>
<path d="M61.0529 25.6853C61.0529 27.7498 59.2506 29.4234 57.0273 29.4234C54.804 29.4234 53.0017 27.7498 53.0017 25.6853C53.0017 23.6208 54.804 21.9473 57.0273 21.9473C59.2506 21.9473 61.0529 23.6208 61.0529 25.6853Z" fill="#C69FD5"/>
<path d="M50.5382 41.2124C50.5382 36.0619 46.3629 31.8866 41.2124 31.8866C36.0619 31.8866 31.8866 36.0619 31.8866 41.2124C31.8866 46.3629 36.0619 50.5382 41.2124 50.5382V56.4522C32.7958 56.4522 25.9727 49.6291 25.9727 41.2124C25.9727 32.7957 32.7958 25.9727 41.2124 25.9727C49.6291 25.9727 56.4522 32.7957 56.4522 41.2124C56.4522 49.6291 49.6291 56.4522 41.2124 56.4522V50.5382C46.3629 50.5382 50.5382 46.3629 50.5382 41.2124Z" fill="#C69FD5"/>
<path d="M53.4618 65.4236V71.4045H29.5382V65.4236H53.4618ZM65.4235 53.4619V29.5383C65.4235 22.9321 60.0681 17.5766 53.4618 17.5766H29.5382C22.9319 17.5766 17.5765 22.9321 17.5765 29.5383V53.4619C17.5765 60.0682 22.9319 65.4236 29.5382 65.4236V71.4045C19.7836 71.4045 11.8471 63.6205 11.6014 53.9251L11.5956 53.4619V29.5383C11.5956 19.6289 19.6288 11.5957 29.5382 11.5957H53.4618L53.925 11.6015C63.6203 11.8472 71.4044 19.7838 71.4044 29.5383V53.4619L71.3986 53.9251C71.1568 63.4665 63.4664 71.1569 53.925 71.3987L53.4618 71.4045V65.4236C60.0681 65.4236 65.4235 60.0682 65.4235 53.4619Z" fill="#C69FD5"/>
</svg>
