<svg width="84" height="84" viewBox="0 0 84 84" fill="none" xmlns="http://www.w3.org/2000/svg">
<path d="M0 18.7039C0 8.37401 8.37401 0 18.7039 0H65.1518C75.4817 0 83.8557 8.37401 83.8557 18.7039V65.1518C83.8557 75.4817 75.4817 83.8557 65.1518 83.8557H18.7039C8.37401 83.8557 0 75.4817 0 65.1518V18.7039Z" fill="#053264"/>
<rect x="13.8607" y="32.7241" width="12.7729" height="36.9501" fill="#C69FD5"/>
<circle cx="20.2471" cy="20.8637" r="7.29878" fill="#C69FD5"/>
<rect x="33.4761" y="32.7241" width="11.8605" height="36.9501" fill="#C69FD5"/>
<rect x="59.478" y="49.1465" width="11.8605" height="20.5278" fill="#C69FD5"/>
<path d="M56.741 31.3555C69.5138 31.3555 71.3385 43.4441 71.3385 49.3743H59.478C59.478 46.6373 56.741 41.3913 52.6354 41.3913C46.0665 41.3913 43.5119 48.8421 43.0558 52.5675L39.4064 50.5148C39.8625 44.1283 43.9681 31.3555 56.741 31.3555Z" fill="#C69FD5"/>
</svg>
