<svg width="54" height="43" viewBox="0 0 54 43" fill="none" xmlns="http://www.w3.org/2000/svg">
<path d="M33.3 35.37L34.17 28.93C36.64 27.87 39.25 27.34 45.41 27.34C52.77 27.34 53.9 31.26 53.9 32.65C53.9 35.37 52.96 37.63 47.08 37.63C48.55 37.43 50.29 36.57 50.29 35.44C50.29 34.11 48.35 33.32 45.41 33.18C42.2 33.05 37.72 33.71 33.3 35.37ZM34.17 28.93C33.77 27.07 31.96 25.41 30.36 24.55C31.5 21.63 34.57 19.9 36.31 19.11L39.99 22.49C39.32 22.62 34.51 25.41 34.17 28.93ZM39.99 22.5C45.41 22.5 47.82 18.19 48.22 14.27L53.1 15.86C53.1 19.84 50.02 25.95 45.41 27.34C43.94 25.88 41.93 24.29 39.99 22.5ZM32.63 12.21C33.9 13.6 35.57 14.27 37.31 14.27C40.79 14.34 44.6 12.48 46.41 10.42L48.22 14.27C45.81 17.59 42.47 19.31 38.92 19.31C38.12 19.31 37.25 19.24 36.31 19.11L32.63 12.21ZM30.36 34.04C30.36 37.03 31.76 41.07 34.17 41.07C36.24 41.07 36.64 40.07 36.64 38.15C36.91 38.35 37.38 39.15 37.38 40.07C37.38 41.07 36.71 42.39 34.17 42.39H26.88V2.85H30.36V34.04ZM26.88 2.85H37.18C40.86 2.85 44 1.99 46.41 0C45.61 1.86 45.34 3.92 45.34 5.18C45.34 6.37 45.61 8.43 46.41 10.42C44.27 8.5 40.86 7.7 36.98 7.7H26.88V2.85Z" fill="#053264"/>
<path d="M20.6 35.37L19.73 28.93C17.26 27.87 14.65 27.34 8.49001 27.34C1.13001 27.34 0 31.26 0 32.65C0 35.37 0.94 37.63 6.82 37.63C5.35 37.43 3.61 36.57 3.61 35.44C3.61 34.11 5.55001 33.32 8.49001 33.18C11.7 33.05 16.18 33.71 20.6 35.37ZM19.73 28.93C20.13 27.07 21.94 25.41 23.54 24.55C22.4 21.63 19.33 19.9 17.59 19.11L13.91 22.49C14.58 22.62 19.39 25.41 19.73 28.93ZM13.91 22.5C8.49 22.5 6.08 18.19 5.68 14.27L0.800003 15.86C0.800003 19.84 3.88001 25.95 8.49001 27.34C9.96001 25.88 11.97 24.29 13.91 22.5ZM21.26 12.21C19.99 13.6 18.32 14.27 16.58 14.27C13.1 14.34 9.29 12.48 7.48 10.42L5.67001 14.27C8.08001 17.59 11.42 19.31 14.97 19.31C15.77 19.31 16.64 19.24 17.58 19.11L21.26 12.21ZM23.54 34.04C23.54 37.03 22.14 41.07 19.73 41.07C17.66 41.07 17.26 40.07 17.26 38.15C16.99 38.35 16.52 39.15 16.52 40.07C16.52 41.07 17.19 42.39 19.73 42.39H27.02V2.85H23.54V34.04ZM27.02 2.85H16.72C13.04 2.85 9.90001 1.99 7.49001 0C8.29001 1.86 8.56001 3.92 8.56001 5.18C8.56001 6.37 8.29001 8.43 7.49001 10.42C9.63001 8.5 13.04 7.7 16.92 7.7H27.02V2.85Z" fill="#053264"/>
</svg>
